<svg xmlns="http://www.w3.org/2000/svg" width="1152" height="338" viewBox="0 0 1152 338" version="1.1"><path d="M 405.094 30.750 L 402.966 32.500 403.233 174.462 L 403.500 316.423 406.250 317.962 C 408.725 319.346, 409.275 319.346, 411.750 317.962 L 414.500 316.423 414.757 173.962 C 414.998 40.913, 414.902 31.417, 413.316 30.250 C 410.929 28.493, 407.591 28.696, 405.094 30.750 M 32.838 37.127 C 28.028 38.480, 21.450 44.197, 18.859 49.276 C 14.157 58.493, 17.245 71.284, 25.711 77.653 C 32.275 82.592, 38.642 83.389, 49.043 80.575 C 52.681 79.591, 56.279 82.789, 59.970 90.288 C 66.046 102.630, 65.022 114.454, 56.025 135.844 C 48.919 152.739, 45.939 164.765, 45.269 179.250 C 43.737 212.370, 56.678 238.355, 83.380 255.777 C 112.220 274.593, 159.483 279.453, 195.752 267.333 C 211.234 262.159, 222.384 255.557, 233.365 245.061 C 244.768 234.162, 251.912 222.054, 256.117 206.500 C 259.509 193.957, 259.300 174.049, 255.626 159.681 C 254.104 153.731, 251.506 145.631, 249.852 141.681 C 240.834 120.152, 240.609 119.313, 240.553 107 C 240.504 96.419, 240.712 95.100, 243.157 90.500 C 244.618 87.750, 247.167 84.215, 248.822 82.644 C 251.667 79.943, 252.032 79.856, 255.574 81.024 C 275.972 87.756, 293.806 67.795, 284.250 48.929 C 279.036 38.636, 268.156 34.040, 257.102 37.462 C 245.621 41.016, 233.108 57.913, 228.564 76 C 224.521 92.093, 225.530 111.924, 231.617 136 C 236.648 155.900, 237.727 167.169, 235.729 178.952 C 230.871 207.607, 209.524 226.914, 174.794 234.063 C 160.174 237.072, 137.038 236.447, 122.500 232.650 C 93.118 224.976, 74.123 207.654, 68.398 183.312 C 65.893 172.664, 66.957 154.742, 70.998 139.500 C 75.719 121.696, 76.997 112.936, 76.999 98.378 C 77 87.760, 76.535 83.422, 74.560 75.640 C 67.732 48.722, 49.954 32.311, 32.838 37.127 M 912.250 73.239 C 902.765 74.344, 903.391 73.025, 905.488 87.500 C 906.653 95.542, 906.943 112.821, 906.968 175.750 L 907 254 918.609 254 L 930.219 254 929.481 250.250 C 929.075 248.188, 928.559 207.238, 928.335 159.250 L 927.927 72 924.214 72.139 C 922.171 72.216, 916.788 72.711, 912.250 73.239 M 978.250 73.239 C 968.624 74.360, 969.080 73.297, 971.500 89 C 972.690 96.723, 972.967 113.047, 972.982 176.250 L 973 254 984.617 254 L 996.233 254 995.444 251.250 C 995.011 249.738, 994.492 208.787, 994.292 160.250 L 993.928 72 990.214 72.139 C 988.171 72.216, 982.788 72.711, 978.250 73.239 M 84.190 93.750 L 84.500 97.500 151.750 97.757 L 219 98.014 219 94.007 L 219 90 151.440 90 L 83.879 90 84.190 93.750 M 548.716 93.470 C 545.534 94.166, 542.678 94.989, 542.369 95.298 C 541.862 95.804, 481 252.864, 481 253.665 C 481 253.849, 485.838 254, 491.751 254 L 502.501 254 510.405 233 L 518.309 212 547.405 212.015 L 576.500 212.031 584 232.765 L 591.500 253.500 604.750 253.779 C 612.038 253.932, 618 253.692, 618 253.246 C 618 252.799, 614.920 245.473, 611.155 236.966 C 607.390 228.460, 593.777 192.370, 580.905 156.767 C 563.799 109.456, 557.096 92.057, 556 92.120 C 555.175 92.167, 551.897 92.774, 548.716 93.470 M 107 162.402 L 107 219.804 109.750 220.800 C 111.263 221.347, 113.288 222.115, 114.250 222.505 C 115.905 223.175, 116 220.003, 116 164.107 L 116 105 111.500 105 L 107 105 107 162.402 M 134 166.318 L 134 227.750 137.125 228.375 C 138.844 228.719, 140.872 229, 141.633 229 C 142.797 229, 142.975 219.267, 142.758 167.250 L 142.500 105.500 138.250 105.193 L 134 104.885 134 166.318 M 161 167.054 L 161 229.223 164.750 228.533 C 166.813 228.154, 168.841 227.516, 169.258 227.114 C 169.675 226.713, 169.900 199.185, 169.758 165.942 L 169.500 105.500 165.250 105.193 L 161 104.885 161 167.054 M 188 164.013 L 188 223.027 191.622 221.513 C 193.614 220.681, 195.414 220, 195.622 220 C 195.830 220, 196 194.125, 196 162.500 L 196 105 192 105 L 188 105 188 164.013 M 546.737 136.089 C 545.785 139.065, 540.567 152.975, 535.142 167 L 525.278 192.500 547.286 192.770 C 559.391 192.918, 569.427 192.906, 569.589 192.744 C 569.752 192.582, 565.468 180.251, 560.070 165.343 C 554.671 150.434, 549.852 136.536, 549.361 134.457 L 548.467 130.677 546.737 136.089 M 809.500 132.408 C 786.614 137.692, 771.104 153.183, 765.355 176.500 C 762.972 186.164, 762.992 205.131, 765.395 214.500 C 771.553 238.515, 785.683 253.020, 805.901 256.081 C 835.707 260.592, 862.090 242.219, 870.633 211 C 873.417 200.826, 873.152 179.038, 870.113 168.267 C 863.593 145.160, 848.111 132.643, 824.604 131.475 C 818.816 131.187, 813.315 131.527, 809.500 132.408 M 1075.347 132.095 C 1048.484 136.583, 1030.656 157.998, 1027.537 189.523 C 1026.150 203.548, 1030.840 223.843, 1038.012 234.852 C 1047.934 250.083, 1059.852 256.428, 1078.500 256.409 C 1095.119 256.391, 1107.759 251.292, 1118.770 240.162 C 1130.412 228.396, 1137 210.447, 1137 190.500 C 1137 149.634, 1112.018 125.968, 1075.347 132.095 M 649.220 133.489 C 643.565 134.170, 638.778 134.901, 638.581 135.114 C 638.384 135.326, 638.838 139.550, 639.590 144.500 C 640.657 151.523, 640.962 170.799, 640.978 232.250 L 641 311 653.019 311 C 664.964 311, 665.035 310.986, 664.542 308.750 C 662.898 301.302, 662 288.619, 662 272.860 C 662 256.197, 662.129 254.903, 663.750 255.369 C 668.243 256.663, 683.139 257.056, 689.500 256.048 C 700.385 254.324, 711.831 248.381, 719.938 240.243 C 734.706 225.420, 741.319 205.087, 738.940 181.823 C 736.618 159.104, 726.692 142.396, 711.253 135.217 C 698.755 129.405, 681.666 131.523, 668.538 140.511 L 662 144.987 662 138.493 C 662 133.899, 661.634 132.036, 660.750 132.125 C 660.063 132.193, 654.874 132.807, 649.220 133.489 M 810.994 148.934 C 806.069 150.432, 802.332 152.916, 798.109 157.498 C 781.256 175.781, 782.196 215.750, 799.868 232.280 C 804.766 236.862, 812.137 240, 818 240 C 827.212 240, 838.086 232.770, 843.309 223.173 C 851.791 207.589, 852.088 181.853, 843.969 165.939 C 837.231 152.731, 822.865 145.323, 810.994 148.934 M 1073.027 149.676 C 1067.220 151.804, 1059.163 159.937, 1055.863 167 C 1051.755 175.793, 1050.493 182.482, 1050.583 195 C 1050.653 204.747, 1051.077 207.699, 1053.365 214.366 C 1058.002 227.881, 1064.982 235.747, 1074.917 238.654 C 1091.717 243.570, 1107.359 231.543, 1112.494 209.760 C 1114.393 201.707, 1114.386 186.262, 1112.479 178.175 C 1109.452 165.333, 1102.671 155.423, 1093.821 150.909 C 1088.214 148.048, 1078.963 147.500, 1073.027 149.676 M 677.336 152.424 C 674.495 153.747, 669.883 157.035, 667.086 159.731 L 662 164.632 662 201.677 L 662 238.721 667.250 239.352 C 670.138 239.699, 676.349 239.987, 681.054 239.991 C 688.235 239.999, 690.431 239.590, 694.739 237.443 C 707.965 230.852, 716.015 213.958, 715.985 192.856 C 715.963 177.243, 712.960 166.872, 705.845 157.829 C 699.640 149.942, 687.578 147.655, 677.336 152.424 M 79.516 271.166 C 71.378 280.170, 64.855 291.518, 61.599 302.338 L 60.196 307 151.706 307 L 243.217 307 242.536 304.250 C 239.925 293.694, 232.810 281.093, 224.391 272.111 L 218.281 265.593 210.391 269.189 C 177.190 284.321, 129.091 284.851, 96.687 270.443 C 84.595 265.067, 85.045 265.048, 79.516 271.166" stroke="none" fill="#fffcfc" fill-rule="evenodd"/><path d="" stroke="none" fill="#fcfcfc" fill-rule="evenodd"/></svg>