<svg xmlns="http://www.w3.org/2000/svg" width="610" height="610" viewBox="0 0 610 610" version="1.1"><path d="M 533 245.118 C 528.106 247.059, 524.065 252.203, 520.954 260.451 C 519.284 264.878, 517.509 269.400, 517.009 270.500 C 515.147 274.593, 509.231 289.587, 508.525 292 C 508.122 293.375, 506.740 296.975, 505.452 300 C 504.164 303.025, 501.911 308.650, 500.446 312.500 C 498.981 316.350, 496.292 323.325, 494.472 328 C 492.652 332.675, 489.063 341.900, 486.498 348.500 C 473.678 381.485, 470.802 388.777, 469.339 392 C 468.465 393.925, 466.707 398.425, 465.431 402 C 462.448 410.362, 458.552 420.597, 456.749 424.807 L 455.333 428.114 450.836 419.307 C 429.364 377.257, 421.371 362.034, 419.301 359.241 C 409.313 345.770, 387.620 352.806, 387.673 369.500 C 387.686 373.768, 388.826 376.695, 395.460 389.500 C 406.625 411.051, 418.617 434.341, 431.246 459 C 437.302 470.825, 443.592 481.916, 445.225 483.647 C 452.817 491.697, 468.056 489.771, 472.899 480.149 C 473.909 478.142, 476.387 472.225, 478.405 467 C 480.423 461.775, 482.497 456.600, 483.014 455.500 C 483.531 454.400, 485.089 450.462, 486.477 446.750 C 487.865 443.038, 490.135 436.962, 491.523 433.250 C 492.911 429.538, 494.462 425.600, 494.969 424.500 C 495.477 423.400, 497.953 417.100, 500.472 410.500 C 502.991 403.900, 505.771 396.925, 506.651 395 C 507.530 393.075, 509.287 388.575, 510.556 385 C 511.824 381.425, 514.289 374.900, 516.035 370.500 C 517.780 366.100, 520.292 359.575, 521.616 356 C 522.941 352.425, 524.907 347.475, 525.984 345 C 527.061 342.525, 529.994 335.100, 532.500 328.500 C 535.006 321.900, 537.484 315.600, 538.005 314.500 C 538.527 313.400, 540.043 309.575, 541.373 306 C 542.704 302.425, 545.120 296.125, 546.744 292 C 558.423 262.325, 558.968 259.436, 554.259 252.173 C 549.804 245.302, 540.402 242.182, 533 245.118 M 378.181 251.081 C 369.677 252.556, 363.407 256.743, 359.360 263.649 C 355.679 269.930, 355.826 280.072, 359.700 287.190 C 362.992 293.239, 365.817 295.511, 377.389 301.416 C 390.524 308.118, 393 310.270, 393 314.983 C 393 323.186, 383.794 325.186, 368.052 320.401 C 363.348 318.971, 359.009 317.400, 358.408 316.909 C 356.482 315.336, 356 317.146, 356.010 325.917 L 356.020 334.500 360.260 336.307 C 371.701 341.183, 391.469 340.739, 400.578 335.402 C 409.800 329.997, 413.613 322.406, 412.724 311.216 C 411.880 300.590, 407.587 296.029, 389.500 286.542 C 384.550 283.945, 379.488 280.883, 378.250 279.736 C 375.193 276.904, 375.331 272.578, 378.583 269.326 C 380.977 266.932, 381.664 266.779, 387.972 267.230 C 391.765 267.502, 397.258 268.745, 400.377 270.038 C 403.456 271.314, 406.123 272.165, 406.303 271.929 C 406.483 271.693, 408.029 268.350, 409.739 264.500 C 413.386 256.285, 413.279 256.088, 403.514 253.086 C 395.908 250.748, 385.054 249.889, 378.181 251.081 M 127.086 252.396 C 126.358 253.274, 126.019 256.444, 126.202 260.660 L 126.500 267.500 138.250 267.782 L 150 268.063 150 303.568 L 150 339.072 159.750 338.786 L 169.500 338.500 169.763 303.250 L 170.026 268 181.553 268 L 193.081 268 192.790 259.750 L 192.500 251.500 160.384 251.236 C 133.589 251.016, 128.072 251.209, 127.086 252.396 M 201.667 251.667 C 201.300 252.033, 201 271.833, 201 295.667 L 201 339 210.476 339 L 219.952 339 220.226 322.250 L 220.500 305.500 224.146 305.196 C 228.398 304.841, 228.488 304.949, 240.767 325 C 244.977 331.875, 248.889 337.831, 249.461 338.235 C 251.247 339.497, 270 339.147, 270 337.851 C 270 337.219, 264.613 328.682, 258.029 318.880 L 246.057 301.057 250.332 298.115 C 257.313 293.313, 260.380 287.973, 260.840 279.821 C 261.806 262.723, 253.493 253.980, 234.353 251.967 C 224.086 250.887, 202.644 250.690, 201.667 251.667 M 273.981 252.250 C 273.971 252.938, 273.961 267, 273.960 283.500 C 273.956 317.335, 274.471 320.779, 280.640 328.175 C 287.994 336.992, 299.754 340.914, 314.648 339.518 C 328.752 338.197, 338.284 331.561, 343.778 319.239 C 346.184 313.844, 346.988 254.065, 344.681 252.150 C 343.693 251.330, 340.391 251.014, 334.847 251.208 L 326.500 251.500 325.964 282 C 325.544 305.920, 325.112 313.141, 323.964 315.469 C 320.496 322.501, 308.440 325.198, 300.521 320.714 C 293.592 316.789, 293.118 314.219, 293.054 280.250 L 293 251 283.500 251 C 276.577 251, 273.995 251.339, 273.981 252.250 M 418.680 251.653 C 418.306 252.027, 418 255.858, 418 260.167 L 418 268 429.500 268 L 441 268 441 303.536 L 441 339.072 450.750 338.786 L 460.500 338.500 460.763 303.250 L 461.026 268 472.553 268 L 484.081 268 483.790 259.750 L 483.500 251.500 451.430 251.236 C 433.792 251.091, 419.054 251.279, 418.680 251.653 M 220 278.606 L 220 289.212 228.097 288.844 C 235.500 288.508, 236.399 288.237, 238.597 285.682 C 240.355 283.639, 241 281.695, 241 278.444 C 241 271.156, 236.447 268, 225.935 268 L 220 268 220 278.606" stroke="none" fill="#f4941c" fill-rule="evenodd"/><path d="M 257 68.541 C 246.159 69.907, 243.412 70.441, 229 73.976 C 220.305 76.110, 202.879 81.920, 197.500 84.479 C 166.701 99.133, 163.229 101.159, 142 116.867 C 128.270 127.027, 101.627 154.970, 92.405 168.884 C 85.047 179.987, 83.934 181.746, 81.903 185.500 C 80.713 187.700, 78.990 190.625, 78.076 192 C 76.638 194.160, 71.983 203.913, 66.620 216 C 60.969 228.736, 53.918 254.562, 51.467 271.500 C 48.181 294.210, 48.606 327.791, 52.434 348 C 55.962 366.626, 61.822 386.607, 67.020 397.739 C 68.109 400.071, 69 402.200, 69 402.472 C 69 403.613, 78.305 421.937, 81.455 427 C 83.338 430.025, 85.956 434.337, 87.274 436.581 C 90.869 442.703, 103.061 458.811, 109.107 465.427 C 131.036 489.421, 153.353 506.648, 180.500 520.536 C 205.352 533.251, 225.368 539.459, 260 545.194 C 268.263 546.563, 310.568 546.596, 318.500 545.240 C 345.215 540.674, 357.845 537.411, 376.500 530.258 C 394.113 523.504, 419.019 509.999, 420.374 506.468 C 421.663 503.109, 420.991 497.991, 419 496 C 415.842 492.842, 410.402 493.386, 403.484 497.552 C 379.367 512.074, 351.037 522.324, 323.500 526.488 C 301.429 529.827, 269.889 529.447, 248.918 525.591 C 239.840 523.922, 217.899 518.143, 216.511 517.056 C 215.955 516.621, 213.025 515.473, 210 514.505 C 206.975 513.537, 199.775 510.481, 194 507.714 C 127.434 475.822, 81.936 415.570, 69.618 343 C 66.569 325.040, 65.581 306.070, 66.910 291 C 68.038 278.210, 72.422 251.949, 73.885 249.215 C 74.403 248.246, 75.541 244.700, 76.413 241.334 C 77.286 237.968, 79.770 230.779, 81.934 225.357 C 99.340 181.760, 128.477 145.876, 167.083 120.491 C 191.872 104.192, 216.128 94.379, 247.769 87.848 C 263 84.704, 264.295 84.600, 288.500 84.551 C 312.936 84.503, 313.867 84.576, 329.741 87.803 C 344.919 90.888, 361.207 95.552, 370.500 99.473 C 397.096 110.697, 412.677 120.128, 433.500 137.610 C 451.222 152.488, 464.844 168.070, 477.552 188 C 482.768 196.179, 493.694 217.654, 496.526 225.289 C 498.459 230.503, 502.370 234, 506.268 234 C 508.898 234, 513.543 230.015, 514.527 226.914 C 515.944 222.451, 502.082 193.490, 489.440 174.500 C 479.987 160.300, 473.090 151.755, 461.722 140.163 C 437.082 115.038, 414.149 99.262, 381.500 84.977 C 366.198 78.282, 338.028 70.740, 320.171 68.558 C 304.648 66.661, 271.980 66.652, 257 68.541 M 162.045 153.092 C 148.879 155.673, 139.263 164.326, 133.809 178.500 C 131.823 183.660, 131.500 186.320, 131.500 197.500 C 131.500 209.500, 131.725 211.076, 134.425 217.980 C 138.803 229.173, 147.530 237.251, 158.734 240.481 C 164.176 242.049, 185.880 240.988, 188.500 239.025 C 189.050 238.613, 190.738 237.980, 192.250 237.619 C 194.959 236.972, 195 236.846, 195 229.148 C 195 224.850, 194.729 221.062, 194.397 220.731 C 194.066 220.399, 192.673 220.554, 191.302 221.075 C 189.931 221.597, 185.013 222.685, 180.373 223.494 C 165.811 226.034, 158.437 223.039, 153.974 212.773 C 152.065 208.383, 151.680 205.741, 151.677 197 C 151.673 187.793, 151.994 185.803, 154.280 180.844 C 155.870 177.393, 158.341 174.079, 160.616 172.344 C 164.002 169.761, 165.086 169.500, 172.422 169.500 C 178.811 169.500, 181.514 169.985, 185.348 171.819 C 188.014 173.095, 190.741 173.930, 191.408 173.674 C 192.075 173.418, 193.207 171.253, 193.923 168.862 C 194.639 166.472, 195.849 163.625, 196.613 162.536 C 198.723 159.523, 198.332 158.529, 194.275 156.594 C 186.287 152.785, 171.699 151.200, 162.045 153.092 M 231.045 153.092 C 220.040 155.250, 210.107 163.109, 205.474 173.325 C 199.445 186.618, 200.356 213.394, 207.176 223.373 C 214.953 234.750, 224.088 240.035, 237.500 240.915 C 248.616 241.645, 255.312 240.721, 262.754 237.430 C 270.621 233.952, 276.821 227.138, 280.552 217.871 C 283.328 210.976, 283.500 209.729, 283.500 196.524 C 283.500 183.999, 283.241 181.859, 281.076 176.500 C 275.813 163.473, 267.549 156.070, 255.395 153.495 C 247.842 151.895, 237.984 151.732, 231.045 153.092 M 296.750 153.562 C 296.337 153.986, 296 173.608, 296 197.167 L 296 240 306 240 L 316 240 316 223.500 L 316 207 319.883 207 C 324.053 207, 323.522 206.383, 334.504 224 C 335.704 225.925, 338.444 230.309, 340.593 233.741 L 344.500 239.983 355.285 239.991 L 366.070 240 364.866 237.750 C 364.204 236.512, 360.720 231.225, 357.124 226 C 353.528 220.775, 348.512 213.374, 345.976 209.553 L 341.365 202.605 345.903 199.553 C 348.399 197.874, 351.805 194.283, 353.471 191.574 C 356.191 187.150, 356.499 185.825, 356.486 178.574 C 356.473 171.515, 356.132 169.976, 353.773 166.330 C 350.342 161.026, 345.389 157.249, 339.295 155.289 C 334.073 153.610, 298.123 152.151, 296.750 153.562 M 373 196.483 L 373 240 398.540 240 L 424.081 240 423.790 231.750 L 423.500 223.500 408.250 223.224 L 393 222.948 393 213.474 L 393 204 407 204 L 421 204 421 195.500 L 421 187 407 187 L 393 187 393 178.526 L 393 170.052 408.250 169.776 L 423.500 169.500 423.500 161.500 L 423.500 153.500 398.250 153.233 L 373 152.966 373 196.483 M 233.450 170.356 C 229.575 172.109, 225.548 176.876, 223.848 181.725 C 223.059 183.975, 222.525 189.942, 222.525 196.500 C 222.525 208.556, 223.669 213.265, 227.789 218.161 C 231.254 222.279, 235.683 224.005, 242.718 223.978 C 254.989 223.931, 261.381 217.451, 262.918 203.500 C 264.513 189.021, 261.513 177.593, 254.649 172 C 252.073 169.901, 250.370 169.458, 244.040 169.238 C 239.242 169.071, 235.391 169.478, 233.450 170.356 M 316 180.632 L 316 191.263 323.682 190.770 C 330.752 190.316, 331.588 190.026, 334.182 187.123 C 336.223 184.838, 337 182.923, 337 180.175 C 337 173.269, 332.431 170, 322.777 170 L 316 170 316 180.632 M 148.144 350.146 C 132.244 354.722, 125.585 373.816, 135.078 387.613 C 138.461 392.531, 144.181 396.543, 156.165 402.405 C 166.577 407.498, 168.374 409.822, 166.730 416.067 C 165.104 422.239, 154.881 423.026, 140.301 418.102 C 135.250 416.396, 130.866 415, 130.559 415 C 130.252 415, 130 418.999, 130 423.886 L 130 432.772 133.250 434.314 C 138.484 436.797, 149.662 438.303, 158.678 437.741 C 168.846 437.106, 176.249 433.864, 181.478 427.754 C 185.512 423.042, 186.996 418.651, 186.972 411.500 C 186.937 400.766, 180.710 393.674, 163.782 385.091 C 158.127 382.223, 152.713 378.955, 151.750 377.828 C 148.960 374.561, 149.527 370.576, 153.224 367.465 C 156.175 364.982, 156.957 364.801, 162.474 365.321 C 165.788 365.634, 169.890 366.586, 171.589 367.438 C 173.287 368.289, 175.990 369.248, 177.594 369.569 C 180.409 370.132, 180.622 369.897, 183.675 362.826 L 186.840 355.500 183.170 353.596 C 181.151 352.548, 177.250 351.091, 174.500 350.357 C 168.789 348.834, 153.139 348.709, 148.144 350.146 M 284.476 349.765 C 283.257 350.639, 280.886 357.040, 265.678 400.500 C 259.326 418.650, 253.821 434.303, 253.444 435.285 C 252.809 436.941, 253.541 437.049, 263.548 436.785 L 274.337 436.500 276.115 431 C 277.092 427.975, 278.384 423.587, 278.985 421.250 L 280.077 417 295.429 417 L 310.781 417 312.999 425.250 C 316.389 437.859, 315.465 437.115, 327.304 436.784 C 335.802 436.547, 337.430 436.250, 337.078 435 C 336.538 433.082, 332.100 420.328, 327.508 407.500 C 325.539 402, 322.773 393.900, 321.361 389.500 C 319.949 385.100, 318.453 381.050, 318.036 380.500 C 317.619 379.950, 316.271 376.125, 315.042 372 C 313.812 367.875, 312.454 364.050, 312.024 363.500 C 311.593 362.950, 310.467 359.800, 309.521 356.500 C 308.575 353.200, 307.283 350.169, 306.651 349.765 C 306.018 349.361, 301 349.031, 295.500 349.031 C 290 349.031, 285.039 349.361, 284.476 349.765 M 197.667 350.667 C 196.834 351.500, 196.776 433.253, 197.607 435.418 C 198.138 436.802, 201.330 437, 223.107 437 L 248 437 248 429 L 248 421 232.500 421 L 217 421 217 410.500 L 217 400 231.540 400 L 246.081 400 245.790 391.750 L 245.500 383.500 231.249 383.500 L 216.998 383.500 216.999 374.750 L 217 366 232.500 366 L 248 366 248 358 L 248 350 223.167 350 C 209.508 350, 198.033 350.300, 197.667 350.667 M 344.239 393.250 L 344.500 436.500 371.500 436.500 L 398.500 436.500 398.792 428.750 L 399.084 421 381.542 421 L 364 421 364 385.500 L 364 350 353.989 350 L 343.979 350 344.239 393.250 M 293.087 375.084 C 291.839 379.163, 289.734 385.924, 288.409 390.110 C 287.084 394.295, 286 398.233, 286 398.860 C 286 399.634, 289.084 400, 295.617 400 C 305.086 400, 305.225 399.966, 304.682 397.750 C 303.675 393.637, 298.210 375.560, 296.773 371.584 L 295.357 367.669 293.087 375.084" stroke="none" fill="#6c6c74" fill-rule="evenodd"/></svg>